<?xml version="1.0" encoding="UTF-8" standalone="no"?>
<svg width="300px" height="300px" viewBox="0 0 300 300" version="1.1" xmlns="http://www.w3.org/2000/svg" xmlns:xlink="http://www.w3.org/1999/xlink">
    <!-- Generator: Sketch 40.1 (33804) - http://www.bohemiancoding.com/sketch -->
    <title>Artboard 7</title>
    <desc>Created with Sketch.</desc>
    <defs></defs>
    <g id="Page-1" stroke="none" stroke-width="1" fill="none" fill-rule="evenodd">
        <g id="Artboard-7" fill="#FFFFFF">
            <path d="M149.5,291 C227.648292,291 291,227.648292 291,149.5 C291,71.3517079 227.648292,8 149.5,8 C71.3517079,8 8,71.3517079 8,149.5 C8,227.648292 71.3517079,291 149.5,291 Z M157.89311,63.6088597 L128.473976,66.0177537 L119.265092,54.6457293 L203.791484,37.4432315 L169.390877,116.545918 L159.88991,104.813201 L169.926446,71.319426 L77.8595222,145.873751 L69.3227539,135.33172 L157.89311,63.6088597 L157.89311,63.6088597 Z M163.591016,142.348898 L136.889539,134.022622 L132.835619,120.762849 L213.203163,135.652985 L154.901908,192.938427 L150.719408,179.258087 L171.647967,153.117256 L79.5874684,181.262975 L75.8879559,169.162415 L163.591016,142.348898 L163.591016,142.348898 Z M176.641969,226.417277 L150.303327,208.437502 L150.303327,195.097291 L220.05833,231.403999 L150.303327,267.710708 L150.303327,253.947378 L172.016845,239.124892 L76.4786787,239.124892 L76.4786787,226.417277 L176.641969,226.417277 L176.641969,226.417277 Z" id="Combined-Shape"></path>
        </g>
    </g>
</svg>