<?xml version="1.0" encoding="UTF-8" standalone="no"?>
<svg width="300px" height="300px" viewBox="0 0 300 300" version="1.1" xmlns="http://www.w3.org/2000/svg" xmlns:xlink="http://www.w3.org/1999/xlink">
    <!-- Generator: Sketch 40.1 (33804) - http://www.bohemiancoding.com/sketch -->
    <title>Artboard 6</title>
    <desc>Created with Sketch.</desc>
    <defs></defs>
    <g id="Page-1" stroke="none" stroke-width="1" fill="none" fill-rule="evenodd">
        <g id="Artboard-6" fill="#FFFFFF">
            <path d="M149.5,291 C227.648292,291 291,227.648292 291,149.5 C291,71.3517079 227.648292,8 149.5,8 C71.3517079,8 8,71.3517079 8,149.5 C8,227.648292 71.3517079,291 149.5,291 Z M102.025,127.325 C102.025,122.55831 104.591641,120.083334 109.725,119.9 L133.65,119.9 C135.116674,113.483301 138.23331,100.55843 143,81.125 C145.933348,69.9416107 151.983288,64.35 161.15,64.35 C164.450017,64.35 167.291655,65.449989 169.675,67.65 C172.058345,69.850011 173.25,72.5999835 173.25,75.9 C173.25,77.366674 172.654173,80.666641 171.4625,85.8 C170.270827,90.933359 168.758343,97.1207971 166.925,104.3625 C165.091657,111.604203 163.808337,116.783318 163.075,119.9 L183.7,119.9 C188.650025,119.9 191.125,121.641649 191.125,125.125 C191.125,130.075025 188.558359,132.641666 183.425,132.825 L159.5,132.825 L141.075,207.35 C138.874989,215.600041 137.775,222.108309 137.775,226.875 C137.775,232.191693 139.699981,234.85 143.55,234.85 C147.950022,234.85 153.083304,232.512523 158.95,227.8375 C164.816696,223.162477 170.224975,215.233389 175.175,204.05 C176.091671,202.216657 176.779164,200.887504 177.2375,200.0625 C177.695836,199.237496 178.383329,198.595836 179.3,198.1375 C180.216671,197.679164 181.408326,197.45 182.875,197.45 L184.525,197.45 C189.291691,197.45 191.675,198.824986 191.675,201.575 C191.675,203.225008 190.483345,206.295811 188.1,210.7875 C185.716655,215.279189 182.554186,220.137474 178.6125,225.3625 C174.670814,230.587526 169.3542,235.170814 162.6625,239.1125 C155.9708,243.054186 149.050036,245.025 141.9,245.025 C132.733288,245.025 125.12503,242.504192 119.075,237.4625 C113.02497,232.420808 110,225.866707 110,217.8 C110,215.599989 111.099989,209.916712 113.3,200.75 L130.075,132.825 L109.175,132.825 C104.40831,132.825 102.025,130.991685 102.025,127.325 Z" id="Combined-Shape"></path>
        </g>
    </g>
</svg>