<?xml version="1.0" encoding="UTF-8" standalone="no"?>
<svg width="300px" height="300px" viewBox="0 0 300 300" version="1.1" xmlns="http://www.w3.org/2000/svg" xmlns:xlink="http://www.w3.org/1999/xlink">
    <!-- Generator: Sketch 40.1 (33804) - http://www.bohemiancoding.com/sketch -->
    <title>Artboard 2</title>
    <desc>Created with Sketch.</desc>
    <defs></defs>
    <g id="Page-1" stroke="none" stroke-width="1" fill="none" fill-rule="evenodd">
        <g id="Artboard-2" fill="#FFFFFF">
            <path d="M149.5,292 C227.648292,292 291,228.648292 291,150.5 C291,72.3517079 227.648292,9 149.5,9 C71.3517079,9 8,72.3517079 8,150.5 C8,228.648292 71.3517079,292 149.5,292 Z M258.59375,165.972656 L249.056641,172.832031 C240.676874,162.432439 223.431424,125.097656 199.441406,125.097656 C163.714844,125.097656 138.089844,223.525391 95.1757812,223.525391 C67.0644531,223.525391 41,168.697266 41,168.697266 L73.515625,109.607422 C73.515625,109.607422 88.484375,148.392578 112.960937,148.392578 C143.095703,148.392578 156.609375,78 186.888672,78 C208.988281,78 225.058594,103.75 225.058594,103.75 L258.59375,165.972656 Z" id="Combined-Shape"></path>
        </g>
    </g>
</svg>